<mxfile host="Electron" modified="2023-11-15T13:47:54.506Z" agent="Mozilla/5.0 (Windows NT 10.0; Win64; x64) AppleWebKit/537.36 (KHTML, like Gecko) draw.io/22.0.3 Chrome/114.0.5735.289 Electron/25.8.4 Safari/537.36" etag="uHdVE82byErEeH8DIiny" version="22.0.3" type="device">
  <diagram name="PÃ¡gina-1" id="oN2VH1VchXN3S7DK6CXB">
    <mxGraphModel dx="1226" dy="751" grid="1" gridSize="10" guides="1" tooltips="1" connect="1" arrows="1" fold="1" page="1" pageScale="1" pageWidth="827" pageHeight="1169" math="0" shadow="0">
      <root>
        <mxCell id="0" />
        <mxCell id="1" parent="0" />
        <mxCell id="RrL7QoBvlQFaUlttI1s7-1" value="" style="rounded=0;whiteSpace=wrap;html=1;sketch=1;hachureGap=4;jiggle=2;curveFitting=1;fontFamily=Architects Daughter;fontSource=https%3A%2F%2Ffonts.googleapis.com%2Fcss%3Ffamily%3DArchitects%2BDaughter;fontSize=20;" vertex="1" parent="1">
          <mxGeometry x="24" y="45" width="780" height="400" as="geometry" />
        </mxCell>
        <mxCell id="RrL7QoBvlQFaUlttI1s7-8" value="" style="rounded=0;whiteSpace=wrap;html=1;sketch=1;hachureGap=4;jiggle=2;curveFitting=1;fontFamily=Architects Daughter;fontSource=https%3A%2F%2Ffonts.googleapis.com%2Fcss%3Ffamily%3DArchitects%2BDaughter;fontSize=20;" vertex="1" parent="1">
          <mxGeometry x="214" y="50" width="500" height="370" as="geometry" />
        </mxCell>
        <mxCell id="RrL7QoBvlQFaUlttI1s7-15" style="edgeStyle=orthogonalEdgeStyle;rounded=0;sketch=1;hachureGap=4;jiggle=2;curveFitting=1;orthogonalLoop=1;jettySize=auto;html=1;fontFamily=Architects Daughter;fontSource=https%3A%2F%2Ffonts.googleapis.com%2Fcss%3Ffamily%3DArchitects%2BDaughter;fontSize=16;entryX=0;entryY=0.5;entryDx=0;entryDy=0;" edge="1" parent="1" source="RrL7QoBvlQFaUlttI1s7-2" target="RrL7QoBvlQFaUlttI1s7-12">
          <mxGeometry relative="1" as="geometry">
            <Array as="points">
              <mxPoint x="200" y="260" />
              <mxPoint x="200" y="180" />
            </Array>
          </mxGeometry>
        </mxCell>
        <mxCell id="RrL7QoBvlQFaUlttI1s7-2" value="persona" style="shape=umlActor;verticalLabelPosition=bottom;verticalAlign=top;html=1;outlineConnect=0;sketch=1;hachureGap=4;jiggle=2;curveFitting=1;fontFamily=Architects Daughter;fontSource=https%3A%2F%2Ffonts.googleapis.com%2Fcss%3Ffamily%3DArchitects%2BDaughter;fontSize=20;" vertex="1" parent="1">
          <mxGeometry x="54" y="230" width="30" height="60" as="geometry" />
        </mxCell>
        <mxCell id="RrL7QoBvlQFaUlttI1s7-4" value="servidor&lt;br&gt;externo" style="shape=umlActor;verticalLabelPosition=bottom;verticalAlign=top;html=1;outlineConnect=0;sketch=1;hachureGap=4;jiggle=2;curveFitting=1;fontFamily=Architects Daughter;fontSource=https%3A%2F%2Ffonts.googleapis.com%2Fcss%3Ffamily%3DArchitects%2BDaughter;fontSize=20;" vertex="1" parent="1">
          <mxGeometry x="744" y="190" width="30" height="60" as="geometry" />
        </mxCell>
        <mxCell id="RrL7QoBvlQFaUlttI1s7-12" value="Ver noticias" style="ellipse;whiteSpace=wrap;html=1;sketch=1;hachureGap=4;jiggle=2;curveFitting=1;fontFamily=Architects Daughter;fontSource=https%3A%2F%2Ffonts.googleapis.com%2Fcss%3Ffamily%3DArchitects%2BDaughter;fontSize=20;" vertex="1" parent="1">
          <mxGeometry x="304" y="150" width="120" height="60" as="geometry" />
        </mxCell>
        <mxCell id="RrL7QoBvlQFaUlttI1s7-19" value="ver detalle" style="ellipse;whiteSpace=wrap;html=1;sketch=1;hachureGap=4;jiggle=2;curveFitting=1;fontFamily=Architects Daughter;fontSource=https%3A%2F%2Ffonts.googleapis.com%2Fcss%3Ffamily%3DArchitects%2BDaughter;fontSize=20;" vertex="1" parent="1">
          <mxGeometry x="304" y="350" width="120" height="60" as="geometry" />
        </mxCell>
        <mxCell id="RrL7QoBvlQFaUlttI1s7-22" value="Registrarse" style="ellipse;whiteSpace=wrap;html=1;sketch=1;hachureGap=4;jiggle=2;curveFitting=1;fontFamily=Architects Daughter;fontSource=https%3A%2F%2Ffonts.googleapis.com%2Fcss%3Ffamily%3DArchitects%2BDaughter;fontSize=20;" vertex="1" parent="1">
          <mxGeometry x="304" y="70" width="120" height="60" as="geometry" />
        </mxCell>
        <mxCell id="RrL7QoBvlQFaUlttI1s7-32" value="" style="endArrow=none;html=1;rounded=0;sketch=1;hachureGap=4;jiggle=2;curveFitting=1;fontFamily=Architects Daughter;fontSource=https%3A%2F%2Ffonts.googleapis.com%2Fcss%3Ffamily%3DArchitects%2BDaughter;fontSize=16;exitX=1;exitY=0.5;exitDx=0;exitDy=0;" edge="1" parent="1" source="RrL7QoBvlQFaUlttI1s7-44" target="RrL7QoBvlQFaUlttI1s7-4">
          <mxGeometry width="50" height="50" relative="1" as="geometry">
            <mxPoint x="514" y="320" as="sourcePoint" />
            <mxPoint x="564" y="270" as="targetPoint" />
          </mxGeometry>
        </mxCell>
        <mxCell id="RrL7QoBvlQFaUlttI1s7-37" style="edgeStyle=orthogonalEdgeStyle;rounded=0;sketch=1;hachureGap=4;jiggle=2;curveFitting=1;orthogonalLoop=1;jettySize=auto;html=1;entryX=0;entryY=0.5;entryDx=0;entryDy=0;fontFamily=Architects Daughter;fontSource=https%3A%2F%2Ffonts.googleapis.com%2Fcss%3Ffamily%3DArchitects%2BDaughter;fontSize=16;" edge="1" parent="1" source="RrL7QoBvlQFaUlttI1s7-36" target="RrL7QoBvlQFaUlttI1s7-19">
          <mxGeometry relative="1" as="geometry" />
        </mxCell>
        <mxCell id="RrL7QoBvlQFaUlttI1s7-58" style="edgeStyle=orthogonalEdgeStyle;rounded=0;sketch=1;hachureGap=4;jiggle=2;curveFitting=1;orthogonalLoop=1;jettySize=auto;html=1;fontFamily=Architects Daughter;fontSource=https%3A%2F%2Ffonts.googleapis.com%2Fcss%3Ffamily%3DArchitects%2BDaughter;fontSize=16;" edge="1" parent="1" source="RrL7QoBvlQFaUlttI1s7-36" target="RrL7QoBvlQFaUlttI1s7-57">
          <mxGeometry relative="1" as="geometry" />
        </mxCell>
        <mxCell id="RrL7QoBvlQFaUlttI1s7-59" style="edgeStyle=orthogonalEdgeStyle;rounded=0;sketch=1;hachureGap=4;jiggle=2;curveFitting=1;orthogonalLoop=1;jettySize=auto;html=1;entryX=0;entryY=0.5;entryDx=0;entryDy=0;fontFamily=Architects Daughter;fontSource=https%3A%2F%2Ffonts.googleapis.com%2Fcss%3Ffamily%3DArchitects%2BDaughter;fontSize=16;" edge="1" parent="1" source="RrL7QoBvlQFaUlttI1s7-36" target="RrL7QoBvlQFaUlttI1s7-56">
          <mxGeometry relative="1" as="geometry" />
        </mxCell>
        <mxCell id="RrL7QoBvlQFaUlttI1s7-36" value="Usuario" style="shape=umlActor;verticalLabelPosition=bottom;verticalAlign=top;html=1;outlineConnect=0;sketch=1;hachureGap=4;jiggle=2;curveFitting=1;fontFamily=Architects Daughter;fontSource=https%3A%2F%2Ffonts.googleapis.com%2Fcss%3Ffamily%3DArchitects%2BDaughter;fontSize=20;" vertex="1" parent="1">
          <mxGeometry x="134" y="330" width="30" height="60" as="geometry" />
        </mxCell>
        <mxCell id="RrL7QoBvlQFaUlttI1s7-55" style="edgeStyle=orthogonalEdgeStyle;rounded=0;sketch=1;hachureGap=4;jiggle=2;curveFitting=1;orthogonalLoop=1;jettySize=auto;html=1;entryX=1;entryY=0.5;entryDx=0;entryDy=0;fontFamily=Architects Daughter;fontSource=https%3A%2F%2Ffonts.googleapis.com%2Fcss%3Ffamily%3DArchitects%2BDaughter;fontSize=16;" edge="1" parent="1" source="RrL7QoBvlQFaUlttI1s7-44" target="RrL7QoBvlQFaUlttI1s7-12">
          <mxGeometry relative="1" as="geometry" />
        </mxCell>
        <mxCell id="RrL7QoBvlQFaUlttI1s7-44" value="Pedir noticias" style="ellipse;whiteSpace=wrap;html=1;sketch=1;hachureGap=4;jiggle=2;curveFitting=1;fontFamily=Architects Daughter;fontSource=https%3A%2F%2Ffonts.googleapis.com%2Fcss%3Ffamily%3DArchitects%2BDaughter;fontSize=20;" vertex="1" parent="1">
          <mxGeometry x="564" y="150" width="120" height="60" as="geometry" />
        </mxCell>
        <mxCell id="RrL7QoBvlQFaUlttI1s7-51" value="&amp;lt;Extends&amp;gt;" style="text;html=1;strokeColor=none;fillColor=none;align=center;verticalAlign=middle;whiteSpace=wrap;rounded=0;fontSize=20;fontFamily=Architects Daughter;" vertex="1" parent="1">
          <mxGeometry x="484" y="150" width="60" height="30" as="geometry" />
        </mxCell>
        <mxCell id="RrL7QoBvlQFaUlttI1s7-54" style="edgeStyle=orthogonalEdgeStyle;rounded=0;sketch=1;hachureGap=4;jiggle=2;curveFitting=1;orthogonalLoop=1;jettySize=auto;html=1;fontFamily=Architects Daughter;fontSource=https%3A%2F%2Ffonts.googleapis.com%2Fcss%3Ffamily%3DArchitects%2BDaughter;fontSize=16;" edge="1" parent="1" source="RrL7QoBvlQFaUlttI1s7-53" target="RrL7QoBvlQFaUlttI1s7-22">
          <mxGeometry relative="1" as="geometry" />
        </mxCell>
        <mxCell id="RrL7QoBvlQFaUlttI1s7-53" value="usuario&lt;br&gt;No &lt;br&gt;registrado" style="shape=umlActor;verticalLabelPosition=bottom;verticalAlign=top;html=1;outlineConnect=0;sketch=1;hachureGap=4;jiggle=2;curveFitting=1;fontFamily=Architects Daughter;fontSource=https%3A%2F%2Ffonts.googleapis.com%2Fcss%3Ffamily%3DArchitects%2BDaughter;fontSize=20;" vertex="1" parent="1">
          <mxGeometry x="134" y="70" width="30" height="60" as="geometry" />
        </mxCell>
        <mxCell id="RrL7QoBvlQFaUlttI1s7-56" value="Iniciar sesion" style="ellipse;whiteSpace=wrap;html=1;sketch=1;hachureGap=4;jiggle=2;curveFitting=1;fontFamily=Architects Daughter;fontSource=https%3A%2F%2Ffonts.googleapis.com%2Fcss%3Ffamily%3DArchitects%2BDaughter;fontSize=20;" vertex="1" parent="1">
          <mxGeometry x="304" y="220" width="120" height="60" as="geometry" />
        </mxCell>
        <mxCell id="RrL7QoBvlQFaUlttI1s7-57" value="cerrar sesion" style="ellipse;whiteSpace=wrap;html=1;sketch=1;hachureGap=4;jiggle=2;curveFitting=1;fontFamily=Architects Daughter;fontSource=https%3A%2F%2Ffonts.googleapis.com%2Fcss%3Ffamily%3DArchitects%2BDaughter;fontSize=20;" vertex="1" parent="1">
          <mxGeometry x="304" y="280" width="120" height="60" as="geometry" />
        </mxCell>
        <mxCell id="RrL7QoBvlQFaUlttI1s7-60" value="" style="shape=flexArrow;endArrow=classic;html=1;rounded=0;sketch=1;hachureGap=4;jiggle=2;curveFitting=1;fontFamily=Architects Daughter;fontSource=https%3A%2F%2Ffonts.googleapis.com%2Fcss%3Ffamily%3DArchitects%2BDaughter;fontSize=16;" edge="1" parent="1" source="RrL7QoBvlQFaUlttI1s7-36" target="RrL7QoBvlQFaUlttI1s7-2">
          <mxGeometry width="50" height="50" relative="1" as="geometry">
            <mxPoint x="74" y="370" as="sourcePoint" />
            <mxPoint x="124" y="320" as="targetPoint" />
          </mxGeometry>
        </mxCell>
        <mxCell id="RrL7QoBvlQFaUlttI1s7-61" value="" style="shape=flexArrow;endArrow=classic;html=1;rounded=0;sketch=1;hachureGap=4;jiggle=2;curveFitting=1;fontFamily=Architects Daughter;fontSource=https%3A%2F%2Ffonts.googleapis.com%2Fcss%3Ffamily%3DArchitects%2BDaughter;fontSize=16;" edge="1" parent="1" target="RrL7QoBvlQFaUlttI1s7-2">
          <mxGeometry width="50" height="50" relative="1" as="geometry">
            <mxPoint x="144" y="202" as="sourcePoint" />
            <mxPoint x="94" y="140" as="targetPoint" />
          </mxGeometry>
        </mxCell>
      </root>
    </mxGraphModel>
  </diagram>
</mxfile>
